<svg xmlns="http://www.w3.org/2000/svg" width="24" height="24" viewBox="0 0 24 24">
  <title>Cheerio SVG Icon (White C)</title>
  <rect width="24" height="24" rx="1.8" fill="#e88c1f"/>
  <path fill="#ffffff" d="M16.14 15.622c.593.444 1.203.9 1.81 1.356c-.415.477-.929.9-1.584 1.307a7.2 7.2 0 0 1-1.64.741a8 8 0 0 1-1.443.31c-.43.054-.88.04-1.22.02a7.4 7.4 0 0 1-3.154-.934a7.05 7.05 0 0 1-2.146-1.869a7 7 0 0 1-1.177-2.223c-.185-.596-.266-1.207-.32-1.727c-.079-.742-.003-1.53.238-2.481c.2-.799.54-1.532 1.008-2.183c.776-1.09 1.74-1.911 2.868-2.44a7.4 7.4 0 0 1 2.321-.672a6 6 0 0 1 .689-.038c.362 0 .76.028 1.227.085a6.3 6.3 0 0 1 1.874.52a7.4 7.4 0 0 1 2.499 1.839a290 290 0 0 1-3.17 2.403a3.33 3.33 0 0 0-1.877-.824c-.894-.096-1.788.156-2.452.691a3.35 3.35 0 0 0-1.247 2.351c-.077.927.22 1.818.834 2.509a3.24 3.24 0 0 0 2.434 1.117a3.35 3.35 0 0 0 2.298-.853z"/>
  <path fill="none" stroke="#000000" stroke-width="0.4" d="M16.14 15.622c.593.444 1.203.9 1.81 1.356c-.415.477-.929.9-1.584 1.307a7.2 7.2 0 0 1-1.64.741a8 8 0 0 1-1.443.31c-.43.054-.88.04-1.22.02a7.4 7.4 0 0 1-3.154-.934a7.05 7.05 0 0 1-2.146-1.869a7 7 0 0 1-1.177-2.223c-.185-.596-.266-1.207-.32-1.727c-.079-.742-.003-1.53.238-2.481c.2-.799.54-1.532 1.008-2.183c.776-1.09 1.74-1.911 2.868-2.44a7.4 7.4 0 0 1 2.321-.672a6 6 0 0 1 .689-.038c.362 0 .76.028 1.227.085a6.3 6.3 0 0 1 1.874.52a7.4 7.4 0 0 1 2.499 1.839a290 290 0 0 1-3.17 2.403a3.33 3.33 0 0 0-1.877-.824c-.894-.096-1.788.156-2.452.691a3.35 3.35 0 0 0-1.247 2.351c-.077.927.22 1.818.834 2.509a3.24 3.24 0 0 0 2.434 1.117a3.35 3.35 0 0 0 2.298-.853z"/>
</svg>
